<?xml version="1.0" encoding="UTF-8" standalone="no"?>
<svg
   xmlns:dc="http://purl.org/dc/elements/1.1/"
   xmlns:cc="http://creativecommons.org/ns#"
   xmlns:rdf="http://www.w3.org/1999/02/22-rdf-syntax-ns#"
   xmlns:svg="http://www.w3.org/2000/svg"
   xmlns="http://www.w3.org/2000/svg"
   xmlns:xlink="http://www.w3.org/1999/xlink"
   xmlns:sodipodi="http://sodipodi.sourceforge.net/DTD/sodipodi-0.dtd"
   xmlns:inkscape="http://www.inkscape.org/namespaces/inkscape"
   width="48px"
   height="48px"
   id="svg4198"
   version="1.1"
   sodipodi:docname="list-demote.svg"
   inkscape:version="0.92.5 (2060ec1f9f, 2020-04-08)">
  <sodipodi:namedview
     pagecolor="#ffffff"
     bordercolor="#666666"
     borderopacity="1"
     objecttolerance="10"
     gridtolerance="10"
     guidetolerance="10"
     inkscape:pageopacity="0"
     inkscape:pageshadow="2"
     inkscape:window-width="640"
     inkscape:window-height="480"
     id="namedview115"
     showgrid="false"
     inkscape:zoom="8.21875"
     inkscape:cx="3.1330799"
     inkscape:cy="23.756654"
     inkscape:current-layer="svg4198" />
  <defs
     id="defs4200">
    <radialGradient
       xlink:href="#linearGradient5060"
       id="radialGradient5031"
       gradientUnits="userSpaceOnUse"
       gradientTransform="matrix(-2.774389,0,0,1.969706,112.7623,-872.8854)"
       cx="605.71429"
       cy="486.64789"
       fx="605.71429"
       fy="486.64789"
       r="117.14286" />
    <linearGradient
       id="linearGradient5060">
      <stop
         style="stop-color:black;stop-opacity:1;"
         offset="0"
         id="stop5062" />
      <stop
         style="stop-color:black;stop-opacity:0;"
         offset="1"
         id="stop5064" />
    </linearGradient>
    <radialGradient
       xlink:href="#linearGradient5060"
       id="radialGradient5029"
       gradientUnits="userSpaceOnUse"
       gradientTransform="matrix(2.774389,0,0,1.969706,-1891.633,-872.8854)"
       cx="605.71429"
       cy="486.64789"
       fx="605.71429"
       fy="486.64789"
       r="117.14286" />
    <linearGradient
       id="linearGradient5048">
      <stop
         style="stop-color:black;stop-opacity:0;"
         offset="0"
         id="stop5050" />
      <stop
         id="stop5056"
         offset="0.5"
         style="stop-color:black;stop-opacity:1;" />
      <stop
         style="stop-color:black;stop-opacity:0;"
         offset="1"
         id="stop5052" />
    </linearGradient>
    <linearGradient
       xlink:href="#linearGradient5048"
       id="linearGradient5027"
       gradientUnits="userSpaceOnUse"
       gradientTransform="matrix(2.774389,0,0,1.969706,-1892.179,-872.8854)"
       x1="302.85715"
       y1="366.64789"
       x2="302.85715"
       y2="609.50507" />
    <linearGradient
       id="linearGradient3558">
      <stop
         style="stop-color:#000000;stop-opacity:1;"
         offset="0"
         id="stop3560" />
      <stop
         style="stop-color:#000000;stop-opacity:0;"
         offset="1"
         id="stop3562" />
    </linearGradient>
    <radialGradient
       xlink:href="#linearGradient3558"
       id="radialGradient3564"
       cx="22.571428"
       cy="30.857143"
       fx="22.571428"
       fy="30.857143"
       r="15.571428"
       gradientTransform="matrix(1.000000,0.000000,0.000000,0.651376,4.638648e-15,10.75754)"
       gradientUnits="userSpaceOnUse" />
    <linearGradient
       id="linearGradient15218">
      <stop
         style="stop-color:#f8f8f7;stop-opacity:1;"
         offset="0"
         id="stop15220" />
      <stop
         id="stop2269"
         offset="0.59928656"
         style="stop-color:#e8e8e8;stop-opacity:1;" />
      <stop
         style="stop-color:#e2e2de;stop-opacity:1;"
         offset="1"
         id="stop15222" />
    </linearGradient>
    <linearGradient
       xlink:href="#linearGradient15218"
       id="linearGradient2240"
       gradientUnits="userSpaceOnUse"
       gradientTransform="matrix(1.342704,0,0,1.235378,-8.219611,-6.577189)"
       x1="20.794008"
       y1="18.378813"
       x2="35.596001"
       y2="39.60046" />
    <radialGradient
       gradientTransform="matrix(0.783292,0,0,0.78329197,-6.3408824,-86.651678)"
       xlink:href="#linearGradient12512"
       id="radialGradient278"
       gradientUnits="userSpaceOnUse"
       cx="55"
       cy="125"
       fx="55"
       fy="125"
       r="14.375" />
    <linearGradient
       id="linearGradient12512">
      <stop
         style="stop-color:#ffffff;stop-opacity:1.0000000;"
         offset="0.0000000"
         id="stop12513" />
      <stop
         style="stop-color:#fff520;stop-opacity:0.89108908;"
         offset="0.50000000"
         id="stop12517" />
      <stop
         style="stop-color:#fff300;stop-opacity:0.0000000;"
         offset="1.0000000"
         id="stop12514" />
    </linearGradient>
    <radialGradient
       r="15.644737"
       fy="36.421127"
       fx="24.837126"
       cy="36.421127"
       cx="24.837126"
       gradientTransform="matrix(1.2666668,0,0,0.68227697,-17.422637,-6.9300235)"
       gradientUnits="userSpaceOnUse"
       id="radialGradient1444"
       xlink:href="#linearGradient5060" />
    <radialGradient
       r="16.9562"
       fy="20.494493"
       fx="35.292667"
       cy="20.494493"
       cx="35.292667"
       gradientTransform="matrix(0,-1.0716412,1.2922129,0,7.7427085,63.525226)"
       gradientUnits="userSpaceOnUse"
       id="radialGradient1469"
       xlink:href="#linearGradient1442" />
    <linearGradient
       id="linearGradient1442">
      <stop
         style="stop-color:#73d216"
         offset="0"
         id="stop1444" />
      <stop
         style="stop-color:#4e9a06"
         offset="1.0000000"
         id="stop1446" />
    </linearGradient>
    <radialGradient
       r="17.171415"
       fy="1.5350308"
       fx="15.987216"
       cy="1.5350308"
       cx="15.987216"
       gradientTransform="matrix(0,-2.6017816,-1.9729728,0,62.854307,94.474397)"
       gradientUnits="userSpaceOnUse"
       id="radialGradient1471"
       xlink:href="#linearGradient8650" />
    <linearGradient
       id="linearGradient8650">
      <stop
         style="stop-color:#ffffff;stop-opacity:1;"
         offset="0"
         id="stop8652" />
      <stop
         style="stop-color:#ffffff;stop-opacity:0;"
         offset="1"
         id="stop8654" />
    </linearGradient>
    <linearGradient
       id="linearGradient3201"
       x1="302.85999"
       x2="302.85999"
       y1="366.64999"
       y2="609.51001"
       gradientTransform="matrix(0.067325,0,0,0.0147,-0.34114,37.039997)"
       gradientUnits="userSpaceOnUse">
      <stop
         id="stop5050-8"
         style="stop-opacity:0"
         offset="0" />
      <stop
         id="stop5056-4"
         offset=".5" />
      <stop
         id="stop5052-5"
         style="stop-opacity:0"
         offset="1" />
    </linearGradient>
    <radialGradient
       id="radialGradient3198"
       cx="605.71002"
       cy="486.64999"
       r="117.14"
       gradientTransform="matrix(-0.02304,0,0,0.0147,21.623,37.039997)"
       gradientUnits="userSpaceOnUse"
       xlink:href="#linearGradient5060" />
    <radialGradient
       id="radialGradient3195"
       cx="605.71002"
       cy="486.64999"
       r="117.14"
       gradientTransform="matrix(0.02304,0,0,0.0147,26.361,37.039997)"
       gradientUnits="userSpaceOnUse"
       xlink:href="#linearGradient5060" />
    <linearGradient
       id="linearGradient3190"
       x1="25.132"
       x2="25.132"
       y1="0.98521"
       y2="47.013"
       gradientTransform="matrix(1,0,0,0.95617,-10e-7,-1.9149)"
       gradientUnits="userSpaceOnUse">
      <stop
         id="stop3602"
         style="stop-color:#f4f4f4"
         offset="0" />
      <stop
         id="stop3604"
         style="stop-color:#dbdbdb"
         offset="1" />
    </linearGradient>
    <linearGradient
       id="linearGradient3192"
       x1="-51.785999"
       x2="-51.785999"
       y1="50.785999"
       y2="2.9061999"
       gradientTransform="matrix(0.8075,0,0,0.89483,59.409995,-2.9806)"
       gradientUnits="userSpaceOnUse">
      <stop
         id="stop3106"
         style="stop-color:#aaa"
         offset="0" />
      <stop
         id="stop3108"
         style="stop-color:#c8c8c8"
         offset="1" />
    </linearGradient>
    <radialGradient
       id="radialGradient3187"
       cx="102"
       cy="112.3"
       r="139.56"
       gradientTransform="matrix(0.3617,0,0,-0.39078,0.85106,47.516997)"
       gradientUnits="userSpaceOnUse">
      <stop
         id="stop41"
         style="stop-color:#b7b8b9"
         offset="0" />
      <stop
         id="stop47"
         style="stop-color:#ececec"
         offset=".18851" />
      <stop
         id="stop49"
         style="stop-color:#fafafa;stop-opacity:0"
         offset=".25718" />
      <stop
         id="stop51"
         style="stop-color:#fff;stop-opacity:0"
         offset=".30111" />
      <stop
         id="stop53"
         style="stop-color:#fafafa;stop-opacity:0"
         offset=".5313" />
      <stop
         id="stop55"
         style="stop-color:#ebecec;stop-opacity:0"
         offset=".8449" />
      <stop
         id="stop57"
         style="stop-color:#e1e2e3;stop-opacity:0"
         offset="1" />
    </radialGradient>
    <linearGradient
       id="linearGradient2891"
       x1="-22.540001"
       x2="-22.540001"
       y1="11.109"
       y2="46.264"
       gradientTransform="matrix(0.79932,0,0,1.0037,40.856,-1.5607)"
       gradientUnits="userSpaceOnUse">
      <stop
         id="stop4032"
         style="stop-color:#767676"
         offset="0" />
      <stop
         id="stop4034"
         style="stop-color:#4c4c4c"
         offset="1" />
    </linearGradient>
    <linearGradient
       id="linearGradient2893"
       x1="9.4919996"
       x2="9.4919996"
       y1="46.313999"
       y2="1.7165"
       gradientTransform="matrix(0.91101,0,0,0.977,0.60274,-0.94794)"
       gradientUnits="userSpaceOnUse">
      <stop
         id="stop4044"
         style="stop-color:#333"
         offset="0" />
      <stop
         id="stop4046"
         style="stop-color:#666"
         offset="1" />
    </linearGradient>
    <linearGradient
       id="linearGradient2888"
       x1="24"
       x2="24"
       y1="2"
       y2="46.016998"
       gradientTransform="matrix(1,0,0,0.97778,0,-0.96667)"
       gradientUnits="userSpaceOnUse">
      <stop
         id="stop3213"
         style="stop-color:#fff"
         offset="0" />
      <stop
         id="stop3215"
         style="stop-color:#fff;stop-opacity:0"
         offset="1" />
    </linearGradient>
    <filter
       style="color-interpolation-filters:sRGB"
       id="filter3248"
       x="-0.14846"
       y="-0.16434"
       width="1.2969"
       height="1.3286999">
      <feGaussianBlur
         id="feGaussianBlur3250"
         stdDeviation="0.77391625" />
    </filter>
    <linearGradient
       id="linearGradient2884"
       x1="32.891998"
       x2="36.358002"
       y1="8.059"
       y2="5.4565001"
       gradientTransform="matrix(0.9977,0,0,1.0407,0.1638,-1.1058)"
       gradientUnits="userSpaceOnUse">
      <stop
         id="stop8591"
         style="stop-color:#fefefe"
         offset="0" />
      <stop
         id="stop8593"
         style="stop-color:#cbcbcb"
         offset="1" />
    </linearGradient>
    <radialGradient
       id="radialGradient3800"
       cx="22.902"
       cy="45.867001"
       r="7.9059"
       gradientTransform="matrix(0.69765,0,0,0.29961,14.507,18.89)"
       gradientUnits="userSpaceOnUse">
      <stop
         id="stop3197"
         offset="0" />
      <stop
         id="stop3199"
         style="stop-opacity:0"
         offset="1" />
    </radialGradient>
    <radialGradient
       id="radialGradient3797"
       cx="22.902"
       cy="45.867001"
       r="7.9059"
       gradientTransform="matrix(0.75875,0,0,0.32584,1.194,19.479)"
       gradientUnits="userSpaceOnUse">
      <stop
         id="stop3203"
         offset="0" />
      <stop
         id="stop3205"
         style="stop-opacity:0"
         offset="1" />
    </radialGradient>
    <radialGradient
       id="radialGradient3793"
       cx="17.059"
       cy="41.058998"
       r="5.7385001"
       fx="14.638"
       fy="38.174999"
       gradientTransform="matrix(0.66498,0,-0.10886,0.63739,11.938,5.2626)"
       gradientUnits="userSpaceOnUse">
      <stop
         id="stop3877"
         style="stop-color:#aaa"
         offset="0" />
      <stop
         id="stop3879"
         style="stop-color:#4d4d4d"
         offset="1" />
    </radialGradient>
    <radialGradient
       id="radialGradient3790"
       cx="17.059"
       cy="41.058998"
       r="5.7385001"
       fx="14.109"
       fy="38.980999"
       gradientTransform="matrix(0.66333,0,-0.10859,0.6358,23.997,3.4975)"
       gradientUnits="userSpaceOnUse">
      <stop
         id="stop3871"
         style="stop-color:#aaa"
         offset="0" />
      <stop
         id="stop3873"
         style="stop-color:#4d4d4d"
         offset="1" />
    </radialGradient>
    <linearGradient
       id="linearGradient3787"
       x1="28.739"
       x2="25.4"
       y1="144.12"
       y2="119.86"
       gradientTransform="matrix(0.22147,0,0,0.22311,16.032,-16.079)"
       gradientUnits="userSpaceOnUse">
      <stop
         id="stop3239"
         style="stop-color:#fff"
         offset="0" />
      <stop
         id="stop3241"
         style="stop-color:#fff;stop-opacity:.37931"
         offset="1" />
    </linearGradient>
    <linearGradient
       id="linearGradient3784"
       x1="28.739"
       x2="26.257"
       y1="144.12"
       y2="125.39"
       gradientTransform="matrix(0.44563,0,0,0.22311,22.716,-17.657)"
       gradientUnits="userSpaceOnUse">
      <stop
         id="stop3245"
         style="stop-color:#fff"
         offset="0" />
      <stop
         id="stop3247"
         style="stop-color:#fff;stop-opacity:.37931"
         offset="1" />
    </linearGradient>
    <radialGradient
       gradientTransform="matrix(5.4518816,0,0,4,-129.59653,-60.089961)"
       r="107.29"
       cx="46.063999"
       cy="16.075001"
       gradientUnits="userSpaceOnUse"
       id="XMLID_2_">
      <stop
         offset="0"
         style="stop-color:#D1F593"
         id="stop6" />
      <stop
         offset="1"
         style="stop-color:#81CE09"
         id="stop8" />
    </radialGradient>
    <radialGradient
       id="radialGradient3292"
       gradientUnits="userSpaceOnUse"
       cy="16.075001"
       cx="46.063999"
       r="107.29"
       gradientTransform="matrix(1.3629704,0,0,1,-0.00105332,0)">
      <stop
         id="stop3288"
         style="stop-color:#D1F593"
         offset="0" />
      <stop
         id="stop3290"
         style="stop-color:#81CE09"
         offset="1" />
    </radialGradient>
  </defs>
  <metadata
     id="metadata4203">
    <rdf:RDF>
      <cc:Work
         rdf:about="">
        <dc:format>image/svg+xml</dc:format>
        <dc:type
           rdf:resource="http://purl.org/dc/dcmitype/StillImage" />
        <dc:title />
        <dc:date>2005-10-29</dc:date>
        <dc:creator>
          <cc:Agent>
            <dc:title>Andreas Nilsson</dc:title>
          </cc:Agent>
        </dc:creator>
        <dc:subject>
          <rdf:Bag>
            <rdf:li>justify</rdf:li>
            <rdf:li>left</rdf:li>
          </rdf:Bag>
        </dc:subject>
        <cc:license
           rdf:resource="http://creativecommons.org/licenses/publicdomain/" />
      </cc:Work>
      <cc:License
         rdf:about="http://creativecommons.org/licenses/publicdomain/">
        <cc:permits
           rdf:resource="http://creativecommons.org/ns#Reproduction" />
        <cc:permits
           rdf:resource="http://creativecommons.org/ns#Distribution" />
        <cc:permits
           rdf:resource="http://creativecommons.org/ns#DerivativeWorks" />
      </cc:License>
    </rdf:RDF>
  </metadata>
  <rect
     style="opacity:0.3;fill:url(#linearGradient3201)"
     height="3.5701001"
     width="32.507999"
     y="43.898056"
     x="3.7459002"
     id="rect2879" />
  <path
     style="opacity:0.3;fill:url(#radialGradient3198)"
     d="m 3.7459,43.898055 v 3.5699 c -1.1865,0.0067 -2.8684,-0.79982 -2.8684,-1.7852 0,-0.98533 1.324,-1.7847 2.8684,-1.7847 z"
     id="path2881"
     inkscape:connector-curvature="0" />
  <path
     style="opacity:0.3;fill:url(#radialGradient3195)"
     d="m 36.2541,43.898055 v 3.5699 c 1.1865,0.0067 2.8684,-0.79982 2.8684,-1.7852 0,-0.98533 -1.324,-1.7847 -2.8684,-1.7847 z"
     id="path2883"
     inkscape:connector-curvature="0" />
  <path
     style="fill:url(#linearGradient3190);stroke:url(#linearGradient3192);stroke-width:0.99992001;stroke-linejoin:round"
     d="m 2.5081,1.9652552 h 24.061 c 1.4069,0.47465 8.9655,5.8822 10.939,9.6263998 v 34.379 h -35 V 1.9646552 Z"
     id="path4160"
     inkscape:connector-curvature="0" />
  <path
     style="fill:url(#radialGradient3187)"
     d="m 3.3698,45.468055 c -0.1993,0 -0.3617,-0.17546 -0.3617,-0.39078 V 2.8732752 c 0,-0.21571 0.1624,-0.39078 0.3617,-0.39078 7.4831,0.10801 15.776,-0.16158 23.25,0.026895 l 10.283,8.8659998 0.10598,33.702 c 0,0.21532 -0.16204,0.39078 -0.3617,0.39078 h -33.277 z"
     id="path4191"
     inkscape:connector-curvature="0" />
  <path
     style="display:block;fill:url(#linearGradient2891);stroke:url(#linearGradient2893);stroke-width:1.00969994;stroke-linejoin:round"
     d="M 8.0031,45.963055 H 2.74 c -0.42641,-0.52087 -0.10216,-1.555 -0.20348,-2.2924 V 2.2256552 l 0.059468,-0.1789 0.14401,-0.073872 h 5.1915"
     id="path4530"
     inkscape:connector-curvature="0" />
  <path
     style="opacity:0.4;fill:none;stroke:url(#linearGradient2888);stroke-width:0.99992001;stroke-linejoin:round"
     d="m 36.5081,11.727055 v 33.263 h -33 V 2.9450552 h 22.866"
     id="path2435"
     inkscape:connector-curvature="0" />
  <path
     style="opacity:0.4;fill-rule:evenodd;filter:url(#filter3248)"
     d="m 24.6251,2.3893152 c 4.2825,0 2.1532,8.4831998 2.1532,8.4831998 0,0 10.358,-1.8022998 10.358,2.8187 0,-2.6097 -11.302,-10.7289998 -12.511,-11.3019998 z"
     id="path12038"
     inkscape:connector-curvature="0" />
  <path
     style="fill:url(#linearGradient2884);fill-rule:evenodd"
     d="m 24.6251,2.3893152 c 3.1865,0 2.3358,7.6618998 2.3358,7.6618998 0,0 10.175,-0.9810498 10.175,3.64 0,-1.1259 0.08591,-1.9322 -0.13378,-2.2836 -1.5783,-2.5241998 -8.3955,-8.1883998 -10.857,-8.9307998 -0.18422,-0.055555 -0.5927,-0.087535 -1.5198,-0.087535 z"
     id="path4474"
     inkscape:connector-curvature="0" />
  <path
     style="opacity:0.3;fill:url(#radialGradient3800)"
     d="m 32.0081,34.100055 c 0,1.3082 -2.4694,2.3687 -5.5156,2.3687 -3.0462,0 -5.5156,-1.0605 -5.5156,-2.3687 0,-1.3082 2.4694,-2.3687 5.5156,-2.3687 3.0462,0 5.5156,1.0605 5.5156,2.3687 z"
     id="path2704"
     inkscape:connector-curvature="0" />
  <path
     style="opacity:0.3;fill:url(#radialGradient3797)"
     d="m 20.5771,35.893055 c -8.55e-4,1.4225 -2.6862,2.5754 -5.9986,2.5754 -3.3124,0 -5.9977,-1.153 -5.9986,-2.5754 -8.56e-4,-1.423 2.685,-2.5768 5.9986,-2.5768 3.3136,0 5.9994,1.1538 5.9986,2.5768 z"
     id="path4121"
     inkscape:connector-curvature="0" />
  <path
     style="fill:#008080;stroke:#333333;stroke-linecap:round;stroke-linejoin:round"
     d="m 30.4741,10.972255 c -4.1269,0.65819 -8.8722,1.3357 -12.988,2.0307 -1.0898,0.52625 -0.84479,1.8813 -0.89301,2.8646 v 13.162 c -2.8008,-0.6412 -5.8751,1.4509 -5.9966,4.4247 -0.19829,1.8514 1.4606,3.463 3.2644,3.5063 3.2297,0.07759 5.6844,-2.0431 5.7194,-4.7252 -0.03527,-4.5043 0.0099,-9.0104 0,-13.515 0.5,-0.03665 8.319,-1.4668 9,-1.5621 v 10.122 c -2.5834,-0.76106 -5.1657,0.82954 -5.8019,3.4956 -0.47074,1.5444 0.23898,3.3701 1.7711,4.0028 2.9909,1.3602 7.1978,-1.395 7.0308,-4.6285 -0.04632,-6.0063 0.03797,-12.015 0,-18.022 -0.07855,-0.56448 -0.46504,-1.1967 -1.1066,-1.1559 z"
     id="path2821"
     inkscape:connector-curvature="0" />
  <path
     style="fill:#008080"
     d="m 18.7161,32.236055 c 0,1.9878 -1.7443,3.8972 -3.8959,4.2647 -2.1516,0.3675 -3.8959,-0.94604 -3.8959,-2.9339 0,-1.98786 1.7443,-3.8972 3.8959,-4.2647 2.1516,-0.3675 3.8959,0.94604 3.8959,2.9339 z"
     id="path2937"
     inkscape:connector-curvature="0" />
  <path
     style="fill:url(#radialGradient3790)"
     d="m 30.7581,30.405055 c 4.91e-4,1.9881 -1.7439,3.898 -3.8959,4.2655 -2.152,0.3675 -3.8964,-0.94646 -3.8959,-2.9347 4.91e-4,-1.9876 1.7446,-3.8964 3.8959,-4.2639 2.1513,-0.3675 3.8954,0.94563 3.8959,2.933 z"
     id="path2941"
     inkscape:connector-curvature="0" />
  <path
     style="opacity:0.3;fill:url(#linearGradient3787);fill-rule:evenodd"
     d="m 17.1871,29.634055 -0.094,-15.045 c 0,0 0.1029,-1.1502 0.86617,-1.1537 0.2707,-0.04687 12.136,-2.0041 12.136,-2.0041 0,0 1.5321,0.72791 -11.015,2.7677 -1.2871,0.24744 -1,0.73094 -1,1.58 0,2.2902 2e-6,6.0215 2e-6,14.36 0,0.05966 -0.56979,-0.4227 -0.89325,-0.50513 h 2e-6 z"
     id="path2945"
     inkscape:connector-curvature="0" />
  <path
     style="opacity:0.3;fill:url(#linearGradient3784);fill-rule:evenodd"
     d="m 29.0801,27.902055 0.0594,-11.366 c 0.62592,-0.05597 0.0961,-0.009 0.94012,-0.09284 0.01161,2.123 4.8e-4,3.8852 4.8e-4,11.903 0,0.05966 -0.34916,-0.36221 -1,-0.44464 z"
     id="path2947"
     inkscape:connector-curvature="0" />
  <path
     id="path10"
     style="fill:#008000;stroke:#00ff00;stroke-width:2;stroke-miterlimit:4;stroke-dasharray:none;stroke-opacity:1"
     d="m 27.436375,43.30653 v -4.779084 c 0,-0.160678 -5.35275,-0.07594 -5.852,-0.07594 -1.8295,-3.67e-4 -5.3505,0.475982 -6.8955,-0.479651 -1.614,-0.998187 -0.98825,-3.509614 -0.98825,-4.864559 V 27.9632 c 0,-2.302508 3.236,-2.082584 5.39925,-2.082584 h 7.944 c 0.6815,0 0.3925,-0.434345 0.3925,-0.889784 v -3.117456 c 0,-1.728028 2.42925,-2.534722 4.14975,-1.27644 1.48525,1.086047 2.97075,2.172461 4.456,3.258691 3.16175,2.312413 6.75525,4.520458 9.619,7.035003 2.02075,1.486643 -0.027,2.902301 -1.45325,3.949646 -1.94275,1.42648 -3.88575,2.85351 -5.82875,4.27999 -1.9075,1.401718 -3.817,2.803619 -5.726,4.205704 -1.2385,0.909044 -2.807,2.070478 -4.6265,0.911979 -0.37175,-0.236799 -0.58875,-0.569345 -0.58875,-0.931972" />
</svg>
