<?xml version="1.0" encoding="UTF-8" standalone="no"?>
<svg
   xmlns:dc="http://purl.org/dc/elements/1.1/"
   xmlns:cc="http://creativecommons.org/ns#"
   xmlns:rdf="http://www.w3.org/1999/02/22-rdf-syntax-ns#"
   xmlns:svg="http://www.w3.org/2000/svg"
   xmlns="http://www.w3.org/2000/svg"
   xmlns:xlink="http://www.w3.org/1999/xlink"
   xmlns:sodipodi="http://sodipodi.sourceforge.net/DTD/sodipodi-0.dtd"
   xmlns:inkscape="http://www.inkscape.org/namespaces/inkscape"
   version="1.1"
   viewBox="0 0 95.000004 95.000001"
   id="svg2"
   sodipodi:docname="track-move-down.svg"
   width="95"
   height="95"
   inkscape:version="0.92.5 (2060ec1f9f, 2020-04-08)">
  <sodipodi:namedview
     pagecolor="#ffffff"
     bordercolor="#666666"
     borderopacity="1"
     objecttolerance="10"
     gridtolerance="10"
     guidetolerance="10"
     inkscape:pageopacity="0"
     inkscape:pageshadow="2"
     inkscape:window-width="640"
     inkscape:window-height="480"
     id="namedview839"
     showgrid="false"
     inkscape:zoom="4.190187"
     inkscape:cx="37.260074"
     inkscape:cy="47.312558"
     inkscape:current-layer="svg2" />
  <defs
     id="defs3">
    <linearGradient
       id="linearGradient3579">
      <stop
         offset="0"
         style="stop-color:#ffffff"
         id="stop3581" />
      <stop
         offset="1"
         style="stop-color:#ffffff;stop-opacity:0"
         id="stop3583" />
    </linearGradient>
    <linearGradient
       x1="-19.040001"
       x2="15.224"
       gradientTransform="matrix(1.2301006,-0.12762378,0.07839553,0.75561381,0.38699,1.6906995)"
       y1="52.714001"
       gradientUnits="userSpaceOnUse"
       xlink:href="#linearGradient3579"
       y2="111.34"
       id="linearGradient10462" />
    <linearGradient
       x1="71.087997"
       x2="97.343002"
       gradientTransform="matrix(0.58593341,-0.06079165,0.16458205,1.5863073,0.38699,1.6906995)"
       y1="-6.6212001"
       gradientUnits="userSpaceOnUse"
       xlink:href="#linearGradient3579"
       y2="37.164001"
       id="linearGradient10464" />
    <linearGradient
       x1="95.224998"
       x2="156.67999"
       gradientTransform="matrix(0.56518134,0,0,1.662298,0.38699,1.6906995)"
       y1="4.4250998"
       gradientUnits="userSpaceOnUse"
       xlink:href="#linearGradient3579"
       y2="20.792999"
       id="linearGradient10466" />
    <radialGradient
       xlink:href="#linearGradient5060"
       id="radialGradient1444"
       gradientUnits="userSpaceOnUse"
       gradientTransform="matrix(0.63333338,0,0,0.34099911,-14.571388,-32.04286)"
       cx="24.837126"
       cy="36.421127"
       fx="24.837126"
       fy="36.421127"
       r="15.644737" />
    <linearGradient
       id="linearGradient5060">
      <stop
         id="stop5062"
         offset="0"
         style="stop-color:black;stop-opacity:1;" />
      <stop
         id="stop5064"
         offset="1"
         style="stop-color:black;stop-opacity:0;" />
    </linearGradient>
    <radialGradient
       xlink:href="#linearGradient1442"
       id="radialGradient1469"
       gradientUnits="userSpaceOnUse"
       gradientTransform="matrix(0,-0.53560168,0.64610643,0,37.584416,62.616276)"
       cx="35.292667"
       cy="20.494493"
       fx="35.292667"
       fy="20.494493"
       r="16.9562" />
    <linearGradient
       id="linearGradient1442">
      <stop
         id="stop1444"
         offset="0"
         style="stop-color:#73d216" />
      <stop
         id="stop1446"
         offset="1.0000000"
         style="stop-color:#4e9a06" />
    </linearGradient>
    <radialGradient
       xlink:href="#linearGradient3579"
       id="radialGradient1471"
       gradientUnits="userSpaceOnUse"
       gradientTransform="matrix(0,-1.3003593,-0.98648641,0,65.1402,78.084539)"
       cx="15.987216"
       cy="1.5350308"
       fx="15.987216"
       fy="1.5350308"
       r="17.171415" />
    <radialGradient
       id="XMLID_2_"
       gradientUnits="userSpaceOnUse"
       cy="16.075001"
       cx="46.063999"
       r="107.29"
       gradientTransform="matrix(2.7259408,0,0,2,-123.74853,-56.059049)">
      <stop
         id="stop6"
         style="stop-color:#D1F593"
         offset="0" />
      <stop
         id="stop8"
         style="stop-color:#81CE09"
         offset="1" />
    </radialGradient>
  </defs>
  <g
     transform="translate(-12.593,-3.7318995)"
     id="layer1">
    <path
       id="path9681"
       style="fill:#000000;stroke-width:0.96926999"
       d="M 67.26662,4.3061369 C 63.213133,10.822442 62.263248,19.403486 59.363192,26.682704 L 47.790109,63.280401 C 37.129108,51.167434 14.225258,58.678307 12.896389,74.871901 10.050224,90.079747 27.833809,103.83853 41.883377,96.871422 55.138144,89.905278 55.500651,73.002179 60.28303,60.527674 63.741385,49.067025 67.20071,37.606377 70.659065,26.145729 c 3.546559,9.273006 8.588701,22.320349 -0.791894,29.849638 -5.852452,2.76242 -4.153322,13.602736 3.123958,11.374384 C 85.728306,62.078506 90.450589,44.683017 84.675678,32.611729 80.392474,23.604303 74.972316,15.003001 69.923389,6.3619585 69.183836,5.6996564 68.696293,3.4244889 67.26662,4.3071061 Z"
       inkscape:connector-curvature="0" />
    <path
       id="path1291"
       style="fill:#800080;stroke-width:0.96926999"
       d="M 67.9044,6.0396763 65.658601,13.155087 48.65179,67.023237 C 44.838681,61.648635 38.402729,58.372502 31.385214,59.100424 21.023718,60.175344 13.487643,69.455135 14.563533,79.817601 c 1.07492,10.362465 10.354711,17.89757 20.717177,16.82265 8.169008,-0.848111 14.500279,-6.834323 16.320568,-14.39269 L 70.377007,20.16194 c 1.639036,2.870009 3.566914,9.541494 4.889968,13.404035 1.57991,4.60791 2.451283,9.494969 1.797026,13.790774 -0.655226,4.296773 -2.585043,8.077896 -7.315081,11.386984 -1.261989,0.737614 -1.999604,2.119793 -1.912369,3.578544 0.08723,1.459721 0.98284,2.741096 2.32334,3.321689 1.34147,0.581562 2.897148,0.365414 4.021501,-0.568962 6.32061,-4.42181 9.60062,-10.453577 10.527242,-16.531869 C 85.635256,42.464843 85.071141,36.363288 82.563639,32.002542 77.659133,24.355002 74.614656,18.214677 71.991811,13.839392 70.783132,11.223429 69.267193,8.6395492 67.9044,6.0396763 Z"
       inkscape:connector-curvature="0" />
    <path
       id="path2057"
       style="fill:url(#linearGradient10462);stroke-width:0.96926999"
       d="M 27.85901,60.623147 C 20.786246,62.906747 16.961507,68.116573 15.773182,74.413921 22.21592,101.99644 29.740363,63.383628 48.139046,68.417047 48.495737,66.4882 39.451479,57.203562 27.85901,60.623147 Z"
       inkscape:connector-curvature="0" />
    <path
       id="path3587"
       style="fill:url(#linearGradient10464);stroke-width:0.96926999"
       d="M 49.534795,66.941818 C 54.18826,64.739637 63.786941,18.148766 69.865233,18.136166 68.081776,17.71938 67.760948,14.995731 67.649482,8.6456556 67.331561,9.6652307 49.743188,67.156608 49.534795,66.94143 Z"
       inkscape:connector-curvature="0" />
    <path
       id="path5873"
       style="fill:url(#linearGradient10466);fill-rule:evenodd;stroke-width:0.96926999"
       d="m 69.730504,18.398838 c 0,0 21.728126,32.82239 6.317702,34.825871 3.544621,-4.160107 3.698735,-16.02591 -6.317702,-34.825871 z"
       inkscape:connector-curvature="0" />
  </g>
  <metadata
     id="metadata21">
    <rdf:RDF>
      <cc:Work>
        <dc:format>image/svg+xml</dc:format>
        <dc:type
           rdf:resource="http://purl.org/dc/dcmitype/StillImage" />
        <cc:license
           rdf:resource="http://creativecommons.org/publicdomain/zero/1.0/" />
        <dc:publisher>
          <cc:Agent
             rdf:about="http://openclipart.org/">
            <dc:title>Openclipart</dc:title>
          </cc:Agent>
        </dc:publisher>
        <dc:title />
      </cc:Work>
      <cc:License
         rdf:about="http://creativecommons.org/publicdomain/zero/1.0/">
        <cc:permits
           rdf:resource="http://creativecommons.org/ns#Reproduction" />
        <cc:permits
           rdf:resource="http://creativecommons.org/ns#Distribution" />
        <cc:permits
           rdf:resource="http://creativecommons.org/ns#DerivativeWorks" />
      </cc:License>
    </rdf:RDF>
  </metadata>
  <path
     inkscape:connector-curvature="0"
     d="m 49.275749,56.877184 h 9.275133 c 0.31184,0 0.147383,-10.297194 0.147383,-11.257611 7.12e-4,-3.519447 -0.923775,-10.292868 0.930895,-13.265016 1.937258,-3.104886 6.811376,-1.901117 9.441021,-1.901117 h 9.983539 c 4.46865,0 4.04183,6.22516 4.04183,10.386649 v 15.282035 c 0,1.311016 0.84297,0.75506 1.72687,0.75506 h 6.05029 c 3.35371,0 4.91932,4.673199 2.47728,7.98296 -2.10777,2.857206 -4.21626,5.714894 -6.32439,8.5721 -4.48788,6.082324 -8.7732,12.995214 -13.653366,18.504269 -2.885242,3.887359 -5.632717,-0.05194 -7.66538,-2.795647 C 62.938376,85.403558 60.16883,81.665768 57.400351,77.927979 54.67993,74.258482 51.959154,70.585137 49.23802,66.912754 47.473769,64.530226 45.219686,61.51287 47.468073,58.01266 c 0.459574,-0.715143 1.104971,-1.13259 1.808749,-1.13259"
     style="fill:#008000;stroke:#00ff00;stroke-width:2;stroke-miterlimit:4;stroke-dasharray:none;stroke-opacity:1"
     id="path10-6" />
</svg>
