<?xml version="1.0" encoding="UTF-8" standalone="no"?>
<svg
   xmlns:dc="http://purl.org/dc/elements/1.1/"
   xmlns:cc="http://creativecommons.org/ns#"
   xmlns:rdf="http://www.w3.org/1999/02/22-rdf-syntax-ns#"
   xmlns:svg="http://www.w3.org/2000/svg"
   xmlns="http://www.w3.org/2000/svg"
   xmlns:xlink="http://www.w3.org/1999/xlink"
   xmlns:sodipodi="http://sodipodi.sourceforge.net/DTD/sodipodi-0.dtd"
   xmlns:inkscape="http://www.inkscape.org/namespaces/inkscape"
   version="1.1"
   viewBox="0 0 95.000004 95.000001"
   id="svg2"
   sodipodi:docname="track-find.svg"
   inkscape:version="0.92.5 (2060ec1f9f, 2020-04-08)"
   width="95"
   height="95">
  <sodipodi:namedview
     pagecolor="#ffffff"
     bordercolor="#666666"
     borderopacity="1"
     objecttolerance="10"
     gridtolerance="10"
     guidetolerance="10"
     inkscape:pageopacity="0"
     inkscape:pageshadow="2"
     inkscape:window-width="640"
     inkscape:window-height="480"
     id="namedview17"
     showgrid="false"
     inkscape:zoom="4.3682415"
     inkscape:cx="20.189609"
     inkscape:cy="46.638357"
     inkscape:current-layer="svg2" />
  <defs
     id="defs3">
    <linearGradient
       id="linearGradient3579">
      <stop
         offset="0"
         style="stop-color:#ffffff"
         id="stop3581" />
      <stop
         offset="1"
         style="stop-color:#ffffff;stop-opacity:0"
         id="stop3583" />
    </linearGradient>
    <linearGradient
       x1="-19.040001"
       x2="15.224"
       gradientTransform="matrix(1.2301006,-0.12762378,0.07839553,0.75561381,-19.61301,1.6906995)"
       y1="52.714001"
       gradientUnits="userSpaceOnUse"
       xlink:href="#linearGradient3579"
       y2="111.34"
       id="linearGradient10462" />
    <linearGradient
       x1="71.087997"
       x2="97.343002"
       gradientTransform="matrix(0.58593341,-0.06079165,0.16458205,1.5863073,-19.61301,1.6906995)"
       y1="-6.6212001"
       gradientUnits="userSpaceOnUse"
       xlink:href="#linearGradient3579"
       y2="37.164001"
       id="linearGradient10464" />
    <linearGradient
       x1="95.224998"
       x2="156.67999"
       gradientTransform="matrix(0.56518134,0,0,1.662298,-19.61301,1.6906995)"
       y1="4.4250998"
       gradientUnits="userSpaceOnUse"
       xlink:href="#linearGradient3579"
       y2="20.792999"
       id="linearGradient10466" />
    <radialGradient
       inkscape:collect="always"
       xlink:href="#linearGradient4477"
       id="radialGradient1527"
       gradientUnits="userSpaceOnUse"
       gradientTransform="matrix(0.43291029,0,0,0.1030188,13.311721,27.855689)"
       cx="24.130018"
       cy="37.967922"
       fx="24.130018"
       fy="37.967922"
       r="16.528622" />
    <linearGradient
       id="linearGradient4477"
       inkscape:collect="always">
      <stop
         id="stop4479"
         offset="0"
         style="stop-color:#000000;stop-opacity:1;" />
      <stop
         id="stop4481"
         offset="1"
         style="stop-color:#000000;stop-opacity:0;" />
    </linearGradient>
    <linearGradient
       gradientTransform="matrix(0.43291029,0,0,0.43291029,13.030942,13.235244)"
       inkscape:collect="always"
       xlink:href="#linearGradient2846"
       id="linearGradient1529"
       gradientUnits="userSpaceOnUse"
       x1="27.366341"
       y1="26.580296"
       x2="31.335964"
       y2="30.557772" />
    <linearGradient
       id="linearGradient2846">
      <stop
         style="stop-color:#8a8a8a;stop-opacity:1.0000000;"
         offset="0.0000000"
         id="stop2848" />
      <stop
         style="stop-color:#484848;stop-opacity:1.0000000;"
         offset="1.0000000"
         id="stop2850" />
    </linearGradient>
    <linearGradient
       inkscape:collect="always"
       xlink:href="#linearGradient4440"
       id="linearGradient1531"
       gradientUnits="userSpaceOnUse"
       gradientTransform="matrix(0.57775902,0,0,0.55901358,10.011895,10.005448)"
       x1="30.65625"
       y1="34"
       x2="33.21875"
       y2="31.0625" />
    <linearGradient
       id="linearGradient4440">
      <stop
         id="stop4442"
         offset="0"
         style="stop-color:#7d7d7d;stop-opacity:1;" />
      <stop
         style="stop-color:#b1b1b1;stop-opacity:1.0000000;"
         offset="0.50000000"
         id="stop4448" />
      <stop
         id="stop4444"
         offset="1.0000000"
         style="stop-color:#686868;stop-opacity:1.0000000;" />
    </linearGradient>
    <linearGradient
       gradientTransform="matrix(0.43291029,0,0,0.43291029,12.019672,13.436301)"
       inkscape:collect="always"
       xlink:href="#linearGradient2366"
       id="linearGradient1533"
       gradientUnits="userSpaceOnUse"
       x1="18.292673"
       y1="13.602121"
       x2="17.500893"
       y2="25.743469" />
    <linearGradient
       id="linearGradient2366">
      <stop
         style="stop-color:#ffffff;stop-opacity:1;"
         offset="0"
         id="stop2368" />
      <stop
         id="stop2374"
         offset="0.50000000"
         style="stop-color:#ffffff;stop-opacity:0.21904762;" />
      <stop
         style="stop-color:#ffffff;stop-opacity:1.0000000;"
         offset="1.0000000"
         id="stop2370" />
    </linearGradient>
    <radialGradient
       gradientTransform="matrix(0.43291029,0,0,0.43291029,11.840795,12.828056)"
       inkscape:collect="always"
       xlink:href="#linearGradient4454"
       id="radialGradient1537"
       gradientUnits="userSpaceOnUse"
       cx="18.240929"
       cy="21.817987"
       fx="18.240929"
       fy="21.817987"
       r="8.3085051" />
    <linearGradient
       id="linearGradient4454">
      <stop
         id="stop4456"
         offset="0.0000000"
         style="stop-color:#729fcf;stop-opacity:0.20784314;" />
      <stop
         id="stop4458"
         offset="1.0000000"
         style="stop-color:#729fcf;stop-opacity:0.67619050;" />
    </linearGradient>
    <radialGradient
       inkscape:collect="always"
       xlink:href="#linearGradient4467"
       id="radialGradient1539"
       gradientUnits="userSpaceOnUse"
       gradientTransform="matrix(1.1225203,0,0,0.97495892,2.1823198,5.0354904)"
       cx="15.414371"
       cy="13.078408"
       fx="15.414371"
       fy="13.078408"
       r="6.65625" />
    <linearGradient
       id="linearGradient4467">
      <stop
         id="stop4469"
         offset="0"
         style="stop-color:#ffffff;stop-opacity:1;" />
      <stop
         id="stop4471"
         offset="1.0000000"
         style="stop-color:#ffffff;stop-opacity:0.24761905;" />
    </linearGradient>
  </defs>
  <g
     transform="translate(7.407,-3.7318995)"
     id="layer1"
     style="fill:#808000">
    <path
       id="path9681"
       style="fill:#808000;stroke-width:0.96926999"
       d="M 67.26662,4.3061369 C 63.213133,10.822442 62.263248,19.403486 59.363192,26.682704 L 47.790109,63.280401 C 37.129108,51.167434 14.225258,58.678307 12.896389,74.871901 10.050224,90.079747 27.833809,103.83853 41.883377,96.871422 55.138144,89.905278 55.500651,73.002179 60.28303,60.527674 63.741385,49.067025 67.20071,37.606377 70.659065,26.145729 c 3.546559,9.273006 8.588701,22.320349 -0.791894,29.849638 -5.852452,2.76242 -4.153322,13.602736 3.123958,11.374384 C 85.728306,62.078506 90.450589,44.683017 84.675678,32.611729 80.392474,23.604303 74.972316,15.003001 69.923389,6.3619585 69.183836,5.6996564 68.696293,3.4244889 67.26662,4.3071061 Z"
       inkscape:connector-curvature="0" />
    <path
       id="path1291"
       style="fill:#808000;stroke-width:0.96926999"
       d="M 67.9044,6.0396763 65.658601,13.155087 48.65179,67.023237 C 44.838681,61.648635 38.402729,58.372502 31.385214,59.100424 21.023718,60.175344 13.487643,69.455135 14.563533,79.817601 c 1.07492,10.362465 10.354711,17.89757 20.717177,16.82265 8.169008,-0.848111 14.500279,-6.834323 16.320568,-14.39269 L 70.377007,20.16194 c 1.639036,2.870009 3.566914,9.541494 4.889968,13.404035 1.57991,4.60791 2.451283,9.494969 1.797026,13.790774 -0.655226,4.296773 -2.585043,8.077896 -7.315081,11.386984 -1.261989,0.737614 -1.999604,2.119793 -1.912369,3.578544 0.08723,1.459721 0.98284,2.741096 2.32334,3.321689 1.34147,0.581562 2.897148,0.365414 4.021501,-0.568962 6.32061,-4.42181 9.60062,-10.453577 10.527242,-16.531869 C 85.635256,42.464843 85.071141,36.363288 82.563639,32.002542 77.659133,24.355002 74.614656,18.214677 71.991811,13.839392 70.783132,11.223429 69.267193,8.6395492 67.9044,6.0396763 Z"
       inkscape:connector-curvature="0" />
    <path
       id="path2057"
       style="fill:#808000;stroke-width:0.96926999"
       d="M 27.85901,60.623147 C 20.786246,62.906747 16.961507,68.116573 15.773182,74.413921 22.21592,101.99644 29.740363,63.383628 48.139046,68.417047 48.495737,66.4882 39.451479,57.203562 27.85901,60.623147 Z"
       inkscape:connector-curvature="0" />
    <path
       id="path3587"
       style="fill:#808000;stroke-width:0.96926999"
       d="M 49.534795,66.941818 C 54.18826,64.739637 63.786941,18.148766 69.865233,18.136166 68.081776,17.71938 67.760948,14.995731 67.649482,8.6456556 67.331561,9.6652307 49.743188,67.156608 49.534795,66.94143 Z"
       inkscape:connector-curvature="0" />
    <path
       id="path5873"
       style="fill:#808000;fill-rule:evenodd;stroke-width:0.96926999"
       d="m 69.730504,18.398838 c 0,0 21.728126,32.82239 6.317702,34.825871 3.544621,-4.160107 3.698735,-16.02591 -6.317702,-34.825871 z"
       inkscape:connector-curvature="0" />
  </g>
  <metadata
     id="metadata21">
    <rdf:RDF>
      <cc:Work>
        <dc:format>image/svg+xml</dc:format>
        <dc:type
           rdf:resource="http://purl.org/dc/dcmitype/StillImage" />
        <cc:license
           rdf:resource="http://creativecommons.org/publicdomain/zero/1.0/" />
        <dc:publisher>
          <cc:Agent
             rdf:about="http://openclipart.org/">
            <dc:title>Openclipart</dc:title>
          </cc:Agent>
        </dc:publisher>
        <dc:title />
      </cc:Work>
      <cc:License
         rdf:about="http://creativecommons.org/publicdomain/zero/1.0/">
        <cc:permits
           rdf:resource="http://creativecommons.org/ns#Reproduction" />
        <cc:permits
           rdf:resource="http://creativecommons.org/ns#Distribution" />
        <cc:permits
           rdf:resource="http://creativecommons.org/ns#DerivativeWorks" />
      </cc:License>
    </rdf:RDF>
  </metadata>
  <g
     style="display:inline;stroke-width:0.43291023"
     id="g1772"
     transform="matrix(1.5369858,0,0,1.5369858,-4.0419255,-2.4340329)">
    <ellipse
       ry="3.9332814"
       rx="16.528622"
       cy="37.967922"
       cx="24.130018"
       style="color:#000000;display:inline;overflow:visible;visibility:visible;opacity:0.17112301;fill:url(#radialGradient1527);fill-opacity:1;fill-rule:evenodd;stroke:none;stroke-width:0.43291023;stroke-linecap:round;stroke-linejoin:miter;stroke-miterlimit:10;stroke-dasharray:none;stroke-dashoffset:0;stroke-opacity:1;marker:none;marker-start:none;marker-mid:none;marker-end:none"
       id="path4475"
       transform="matrix(1.446431,0,0,1.51999,-10.97453,-17.75168)" />
    <path
       inkscape:connector-curvature="0"
       sodipodi:nodetypes="csscccscccscczzzz"
       id="path2844"
       d="m 18.627569,3.1435548 c -8.13913,0 -14.7448008,6.6056711 -14.7448008,14.7448012 0,8.13913 6.6056708,14.744802 14.7448008,14.744802 3.479555,0 6.551001,-1.384393 9.073723,-3.402647 -0.205377,1.006881 -0.07803,2.035368 0.756144,2.759925 l 10.964084,9.52741 c 1.233416,1.071329 3.087462,0.93096 4.15879,-0.302457 1.071328,-1.233418 0.930959,-3.087462 -0.302457,-4.15879 L 32.313769,27.529188 c -0.671527,-0.583279 -1.492878,-0.755969 -2.306238,-0.642722 1.9867,-2.512422 3.364839,-5.548803 3.364839,-8.99811 0,-8.1391301 -6.605671,-14.7448012 -14.744801,-14.7448012 z m -0.07562,1.2261833 c 7.639459,0 13.291775,4.7889505 13.291775,13.2917749 0,8.675113 -5.81669,13.291775 -13.291775,13.291775 -7.302949,0 -13.2917734,-5.478092 -13.2917734,-13.291775 0,-7.9841069 5.8246384,-13.291775 13.2917734,-13.2917749 z"
       style="color:#000000;display:inline;overflow:visible;visibility:visible;opacity:1;fill:#dcdcdc;fill-opacity:1;fill-rule:evenodd;stroke:url(#linearGradient1529);stroke-width:1.30124855;stroke-linecap:round;stroke-linejoin:miter;stroke-miterlimit:10;stroke-dasharray:none;stroke-dashoffset:0;stroke-opacity:1;marker:none;marker-start:none;marker-mid:none;marker-end:none" />
    <path
       inkscape:connector-curvature="0"
       style="color:#000000;display:inline;overflow:visible;visibility:visible;opacity:1;fill:#dcdcdc;fill-opacity:1;fill-rule:evenodd;stroke:none;stroke-width:0.43291038;stroke-linecap:round;stroke-linejoin:miter;stroke-miterlimit:10;stroke-dasharray:none;stroke-dashoffset:0;stroke-opacity:1;marker:none;marker-start:none;marker-mid:none;marker-end:none"
       d="m 18.602905,3.0803551 c -8.16544,0 -14.7924642,6.627024 -14.7924642,14.7924639 0,8.16544 6.6270242,14.792464 14.7924642,14.792464 3.490803,0 6.572177,-1.388867 9.103055,-3.413645 -0.206041,1.010136 -0.07829,2.041947 0.758587,2.768846 l 10.999526,9.558207 c 1.237403,1.074792 3.097442,0.93397 4.172233,-0.303435 1.074791,-1.237404 0.933968,-3.097442 -0.303435,-4.172233 L 32.333346,27.544815 c -0.673698,-0.585164 -1.497704,-0.758413 -2.313693,-0.644799 1.993122,-2.520544 3.375716,-5.56674 3.375716,-9.027197 0,-8.1654399 -6.627024,-14.7924639 -14.792464,-14.7924639 z m -0.07586,3.1860692 c 6.281108,2e-7 11.378818,5.0977107 11.378818,11.3788187 0,6.281108 -5.09771,11.378818 -11.378818,11.378818 -6.281108,0 -11.3788184,-5.09771 -11.3788184,-11.378818 2e-7,-6.281108 5.0977104,-11.3788187 11.3788184,-11.3788187 z"
       id="path4430" />
    <path
       inkscape:connector-curvature="0"
       style="color:#000000;display:inline;overflow:visible;visibility:visible;opacity:1;fill:url(#linearGradient1531);fill-opacity:1;fill-rule:evenodd;stroke:none;stroke-width:0.43291023;stroke-linecap:round;stroke-linejoin:miter;stroke-miterlimit:10;stroke-dasharray:none;stroke-dashoffset:0;stroke-opacity:1;marker:none;marker-start:none;marker-mid:none;marker-end:none"
       d="m 39.507004,41.57769 c -0.478672,-2.273187 1.39733,-4.811422 3.584053,-4.788375 0,0 -10.760367,-9.258111 -10.760367,-9.258111 -2.944791,-0.05671 -4.269502,2.272616 -3.776814,4.599922 z"
       id="path4438"
       sodipodi:nodetypes="ccccc" />
    <circle
       r="11.048544"
       cy="18.920233"
       cx="17.500893"
       style="color:#000000;display:inline;overflow:visible;visibility:visible;opacity:1;fill:none;fill-opacity:1;fill-rule:evenodd;stroke:url(#linearGradient1533);stroke-width:0.52227765;stroke-linecap:round;stroke-linejoin:miter;stroke-miterlimit:10;stroke-dasharray:none;stroke-dashoffset:0;stroke-opacity:1;marker:none;marker-start:none;marker-mid:none;marker-end:none"
       id="path4450"
       transform="matrix(1.245743,0,0,1.245743,-3.425346,-6.177033)" />
    <rect
       style="color:#000000;display:inline;overflow:visible;visibility:visible;opacity:0.43315507;fill:none;fill-opacity:1;fill-rule:evenodd;stroke:#ffffff;stroke-width:0.65064418;stroke-linecap:round;stroke-linejoin:miter;stroke-miterlimit:10;stroke-dasharray:none;stroke-dashoffset:0;stroke-opacity:1;marker:none;marker-start:none;marker-mid:none;marker-end:none"
       id="rect4495"
       width="19.048439"
       height="4.4404783"
       x="40.373337"
       y="0.14086054"
       rx="1.3901626"
       ry="1.2283366"
       transform="matrix(0.752986,0.658037,-0.648902,0.760872,0,0)" />
    <circle
       r="8.3085051"
       cy="18.478292"
       cx="17.589281"
       style="color:#000000;visibility:visible;fill:url(#radialGradient1537);fill-opacity:1;fill-rule:evenodd;stroke:#3063a3;stroke-width:0.4651922;stroke-linecap:round;stroke-linejoin:miter;stroke-miterlimit:10;stroke-dashoffset:0;stroke-opacity:1;marker:none;marker-start:none;marker-mid:none;marker-end:none"
       id="path4452"
       transform="matrix(1.398614,0,0,1.398614,-6.224338,-8.298958)" />
    <path
       inkscape:connector-curvature="0"
       style="color:#000000;display:inline;overflow:visible;visibility:visible;opacity:0.83422457;fill:url(#radialGradient1539);fill-opacity:1;fill-rule:evenodd;stroke:none;stroke-width:0.43291023;stroke-linecap:round;stroke-linejoin:miter;stroke-miterlimit:10;stroke-dasharray:none;stroke-dashoffset:0;stroke-opacity:1;marker:none;marker-start:none;marker-mid:none;marker-end:none"
       d="m 18.156915,7.3966938 c -5.20759,0 -9.4245469,4.2169572 -9.4245469,9.4245472 0,1.503975 0.4203072,2.887773 1.0471719,4.149903 1.25238,0.461613 2.582757,0.775683 3.994767,0.775683 6.170955,0 11.099282,-4.861637 11.480106,-10.937129 C 23.523449,8.7641668 21.044374,7.3966938 18.156915,7.3966938 Z"
       id="path4462" />
  </g>
</svg>
