<?xml version="1.0" encoding="UTF-8" standalone="no"?>
<svg
   xmlns:dc="http://purl.org/dc/elements/1.1/"
   xmlns:cc="http://creativecommons.org/ns#"
   xmlns:rdf="http://www.w3.org/1999/02/22-rdf-syntax-ns#"
   xmlns:svg="http://www.w3.org/2000/svg"
   xmlns="http://www.w3.org/2000/svg"
   xmlns:xlink="http://www.w3.org/1999/xlink"
   xmlns:sodipodi="http://sodipodi.sourceforge.net/DTD/sodipodi-0.dtd"
   xmlns:inkscape="http://www.inkscape.org/namespaces/inkscape"
   version="1.1"
   viewBox="0 0 95.000004 95.000001"
   id="svg2"
   sodipodi:docname="track-new.svg"
   width="95"
   height="95"
   inkscape:version="0.92.5 (2060ec1f9f, 2020-04-08)">
  <sodipodi:namedview
     pagecolor="#ffffff"
     bordercolor="#666666"
     borderopacity="1"
     objecttolerance="10"
     gridtolerance="10"
     guidetolerance="10"
     inkscape:pageopacity="0"
     inkscape:pageshadow="2"
     inkscape:window-width="640"
     inkscape:window-height="480"
     id="namedview1959"
     showgrid="false"
     inkscape:zoom="4.190187"
     inkscape:cx="27.567606"
     inkscape:cy="47.312558"
     inkscape:current-layer="svg2" />
  <defs
     id="defs3">
    <linearGradient
       id="linearGradient3579">
      <stop
         offset="0"
         style="stop-color:#ffffff"
         id="stop3581" />
      <stop
         offset="1"
         style="stop-color:#ffffff;stop-opacity:0"
         id="stop3583" />
    </linearGradient>
    <linearGradient
       x1="-19.040001"
       x2="15.224"
       gradientTransform="matrix(1.2301006,-0.12762378,0.07839553,0.75561381,-19.61301,1.6906995)"
       y1="52.714001"
       gradientUnits="userSpaceOnUse"
       xlink:href="#linearGradient3579"
       y2="111.34"
       id="linearGradient10462" />
    <linearGradient
       x1="71.087997"
       x2="97.343002"
       gradientTransform="matrix(0.58593341,-0.06079165,0.16458205,1.5863073,-19.61301,1.6906995)"
       y1="-6.6212001"
       gradientUnits="userSpaceOnUse"
       xlink:href="#linearGradient3579"
       y2="37.164001"
       id="linearGradient10464" />
    <linearGradient
       x1="95.224998"
       x2="156.67999"
       gradientTransform="matrix(0.56518134,0,0,1.662298,-19.61301,1.6906995)"
       y1="4.4250998"
       gradientUnits="userSpaceOnUse"
       xlink:href="#linearGradient3579"
       y2="20.792999"
       id="linearGradient10466" />
  </defs>
  <g
     transform="translate(7.407,-3.7318995)"
     id="layer1"
     style="fill:#808000">
    <path
       id="path9681"
       style="fill:#808000;stroke-width:0.96926999"
       d="M 67.26662,4.3061369 C 63.213133,10.822442 62.263248,19.403486 59.363192,26.682704 L 47.790109,63.280401 C 37.129108,51.167434 14.225258,58.678307 12.896389,74.871901 10.050224,90.079747 27.833809,103.83853 41.883377,96.871422 55.138144,89.905278 55.500651,73.002179 60.28303,60.527674 63.741385,49.067025 67.20071,37.606377 70.659065,26.145729 c 3.546559,9.273006 8.588701,22.320349 -0.791894,29.849638 -5.852452,2.76242 -4.153322,13.602736 3.123958,11.374384 C 85.728306,62.078506 90.450589,44.683017 84.675678,32.611729 80.392474,23.604303 74.972316,15.003001 69.923389,6.3619585 69.183836,5.6996564 68.696293,3.4244889 67.26662,4.3071061 Z"
       inkscape:connector-curvature="0" />
    <path
       id="path1291"
       style="fill:#808000;stroke-width:0.96926999"
       d="M 67.9044,6.0396763 65.658601,13.155087 48.65179,67.023237 C 44.838681,61.648635 38.402729,58.372502 31.385214,59.100424 21.023718,60.175344 13.487643,69.455135 14.563533,79.817601 c 1.07492,10.362465 10.354711,17.89757 20.717177,16.82265 8.169008,-0.848111 14.500279,-6.834323 16.320568,-14.39269 L 70.377007,20.16194 c 1.639036,2.870009 3.566914,9.541494 4.889968,13.404035 1.57991,4.60791 2.451283,9.494969 1.797026,13.790774 -0.655226,4.296773 -2.585043,8.077896 -7.315081,11.386984 -1.261989,0.737614 -1.999604,2.119793 -1.912369,3.578544 0.08723,1.459721 0.98284,2.741096 2.32334,3.321689 1.34147,0.581562 2.897148,0.365414 4.021501,-0.568962 6.32061,-4.42181 9.60062,-10.453577 10.527242,-16.531869 C 85.635256,42.464843 85.071141,36.363288 82.563639,32.002542 77.659133,24.355002 74.614656,18.214677 71.991811,13.839392 70.783132,11.223429 69.267193,8.6395492 67.9044,6.0396763 Z"
       inkscape:connector-curvature="0" />
    <path
       id="path2057"
       style="fill:#808000;stroke-width:0.96926999"
       d="M 27.85901,60.623147 C 20.786246,62.906747 16.961507,68.116573 15.773182,74.413921 22.21592,101.99644 29.740363,63.383628 48.139046,68.417047 48.495737,66.4882 39.451479,57.203562 27.85901,60.623147 Z"
       inkscape:connector-curvature="0" />
    <path
       id="path3587"
       style="fill:#808000;stroke-width:0.96926999"
       d="M 49.534795,66.941818 C 54.18826,64.739637 63.786941,18.148766 69.865233,18.136166 68.081776,17.71938 67.760948,14.995731 67.649482,8.6456556 67.331561,9.6652307 49.743188,67.156608 49.534795,66.94143 Z"
       inkscape:connector-curvature="0" />
    <path
       id="path5873"
       style="fill:#808000;fill-rule:evenodd;stroke-width:0.96926999"
       d="m 69.730504,18.398838 c 0,0 21.728126,32.82239 6.317702,34.825871 3.544621,-4.160107 3.698735,-16.02591 -6.317702,-34.825871 z"
       inkscape:connector-curvature="0" />
  </g>
  <metadata
     id="metadata21">
    <rdf:RDF>
      <cc:Work>
        <dc:format>image/svg+xml</dc:format>
        <dc:type
           rdf:resource="http://purl.org/dc/dcmitype/StillImage" />
        <cc:license
           rdf:resource="http://creativecommons.org/publicdomain/zero/1.0/" />
        <dc:publisher>
          <cc:Agent
             rdf:about="http://openclipart.org/">
            <dc:title>Openclipart</dc:title>
          </cc:Agent>
        </dc:publisher>
        <dc:title />
      </cc:Work>
      <cc:License
         rdf:about="http://creativecommons.org/publicdomain/zero/1.0/">
        <cc:permits
           rdf:resource="http://creativecommons.org/ns#Reproduction" />
        <cc:permits
           rdf:resource="http://creativecommons.org/ns#Distribution" />
        <cc:permits
           rdf:resource="http://creativecommons.org/ns#DerivativeWorks" />
      </cc:License>
    </rdf:RDF>
  </metadata>
  <path
     sodipodi:type="star"
     style="opacity:1;fill:#ffff00;fill-opacity:1;fill-rule:nonzero;stroke:#808000;stroke-width:0.92811507;stroke-linecap:butt;stroke-linejoin:miter;stroke-miterlimit:4;stroke-dasharray:none;stroke-dashoffset:0;stroke-opacity:1"
     id="path1518"
     sodipodi:sides="5"
     sodipodi:cx="12.011636"
     sodipodi:cy="-18.417276"
     sodipodi:r1="13.756839"
     sodipodi:r2="7.5662613"
     sodipodi:arg1="0.98279372"
     sodipodi:arg2="1.6111123"
     inkscape:flatsided="false"
     inkscape:rounded="0"
     inkscape:randomized="0"
     d="m 19.642557,-6.9708946 -7.93588,-3.8862684 -8.2231128,3.2344505 1.2437394,-8.7483935 -5.61722715,-6.821145 8.70455295,-1.520536 4.7514756,-7.45015 4.13597,7.808651 8.553801,2.216699 -6.148383,6.346547 z"
     inkscape:transform-center-x="-1.768328"
     inkscape:transform-center-y="-0.98557257"
     transform="matrix(2.1639498,0.34714453,-0.32901877,2.0931166,-3.8664949,64.787859)" />
</svg>
